<?xml version="1.0" standalone="no"?>
<!DOCTYPE svg PUBLIC "-//W3C//DTD SVG 20010904//EN"
 "http://www.w3.org/TR/2001/REC-SVG-20010904/DTD/svg10.dtd">
<svg version="1.0" xmlns="http://www.w3.org/2000/svg"
 width="214.000000pt" height="39.000000pt" viewBox="0 0 214.000000 39.000000"
 preserveAspectRatio="xMidYMid meet">
<metadata>
Created by potrace 1.10, written by Peter Selinger 2001-2011
</metadata>
<g transform="translate(0.000000,39.000000) scale(0.100000,-0.100000)"
fill="#000000" stroke="none">
<path d="M89 333 c-73 -45 -77 -188 -8 -237 35 -24 91 -21 122 8 33 30 52 93
43 141 -10 52 -20 35 -17 -28 3 -59 -21 -101 -66 -118 -68 -25 -139 69 -114
151 20 69 88 100 139 64 12 -8 22 -11 22 -5 0 16 -42 41 -70 41 -14 0 -37 -8
-51 -17z"/>
<path d="M1022 298 c-40 -69 -94 -190 -88 -195 11 -11 26 12 56 85 43 103 53
112 45 36 -12 -101 20 -98 77 7 18 33 36 59 39 59 4 0 3 -17 -1 -37 -16 -72
-15 -166 1 -161 6 2 12 39 14 90 2 47 8 96 15 108 12 23 7 50 -9 50 -5 0 -31
-33 -57 -72 -57 -88 -53 -82 -59 -77 -2 3 0 36 6 73 15 92 1 104 -39 34z"/>
<path d="M353 331 c-58 -10 -65 -21 -14 -21 30 0 41 -4 38 -12 -32 -80 -67
-202 -61 -208 5 -5 27 45 49 111 l40 120 38 -6 c40 -7 52 9 15 19 -27 7 -47 6
-105 -3z"/>
<path d="M215 300 c-21 -17 -45 -41 -53 -53 -9 -12 -17 -24 -18 -26 -2 -2 -12
7 -23 20 -17 21 -20 22 -26 8 -3 -9 3 -32 14 -50 12 -19 21 -43 22 -54 0 -12
10 0 26 33 14 29 46 75 70 102 51 56 45 65 -12 20z"/>
<path d="M776 319 c-3 -8 -21 -56 -41 -108 -19 -52 -33 -96 -31 -98 9 -10 26
9 26 28 0 26 6 24 39 -13 16 -18 33 -30 37 -25 4 4 -2 17 -13 30 -35 38 -35
44 2 67 19 12 35 26 35 31 0 17 -24 9 -53 -18 l-29 -28 7 25 c4 14 16 42 27
64 14 27 16 42 9 49 -7 7 -12 6 -15 -4z"/>
<path d="M626 230 c-43 -38 -45 -53 -10 -85 l27 -25 -32 0 c-19 0 -30 -4 -26
-10 8 -13 62 -13 71 1 3 6 -6 23 -21 39 -23 24 -25 30 -14 48 13 21 59 47 59
34 0 -4 -6 -14 -12 -21 -11 -10 -9 -12 7 -9 14 2 20 11 20 28 0 36 -27 36 -69
0z"/>
<path d="M1710 221 c-49 -48 -34 -110 19 -82 19 11 20 10 4 -34 -18 -54 -31
-64 -49 -40 -8 10 -16 16 -19 13 -3 -3 3 -16 14 -29 30 -36 50 -16 81 78 28
88 28 98 -1 114 -16 8 -25 5 -49 -20z m36 -40 c-17 -31 -46 -43 -46 -17 0 7
10 25 21 40 29 37 47 20 25 -23z"/>
<path d="M461 221 c-28 -28 -53 -80 -47 -97 8 -21 31 -17 65 11 30 26 30 26
41 5 6 -11 21 -20 33 -20 l21 0 -23 16 c-18 13 -22 23 -18 49 4 24 1 34 -14
43 -26 16 -36 15 -58 -7z m49 -14 c0 -16 -67 -83 -76 -75 -9 9 47 88 62 88 8
0 14 -6 14 -13z"/>
<path d="M1265 232 c-6 -4 -21 -20 -33 -36 -42 -55 -16 -112 32 -67 26 25 36
26 36 6 0 -17 25 -20 35 -5 3 6 -1 10 -11 10 -13 0 -15 6 -10 36 10 49 -17 79
-49 56z m35 -25 c0 -16 -55 -77 -70 -77 -11 0 -3 21 28 68 15 24 42 30 42 9z"/>
<path d="M1380 198 c-36 -79 -18 -104 35 -48 35 37 44 38 37 5 -6 -32 23 -45
46 -20 16 17 16 17 -5 12 -20 -4 -23 -1 -23 23 0 42 -14 44 -55 9 l-35 -31 10
28 c6 16 16 34 21 40 7 8 6 14 -1 19 -6 4 -19 -12 -30 -37z"/>
<path d="M1561 203 c-50 -60 -36 -116 18 -76 26 20 26 20 43 -1 16 -20 17 -20
35 -3 17 17 17 18 -7 15 -23 -3 -25 0 -22 35 3 35 -10 67 -28 67 -5 0 -22 -17
-39 -37z m49 -1 c0 -20 -56 -79 -66 -70 -7 8 45 88 57 88 5 0 9 -8 9 -18z"/>
<path d="M1843 218 c-28 -31 -36 -63 -23 -88 13 -24 52 -27 70 -5 14 17 7 19
-20 5 -13 -7 -21 -6 -30 5 -18 22 -6 43 22 38 29 -5 61 26 52 51 -9 23 -47 20
-71 -6z m46 -14 c-13 -16 -39 -19 -39 -4 0 12 32 30 43 23 4 -3 3 -11 -4 -19z"/>
<path d="M2011 223 c-18 -12 -25 -13 -31 -3 -4 7 -13 9 -20 5 -9 -6 -9 -9 -1
-15 9 -5 8 -18 -5 -49 -9 -23 -13 -45 -9 -49 4 -4 9 -2 12 3 2 6 14 28 26 50
17 30 29 39 45 38 14 -2 22 3 22 12 0 22 -15 25 -39 8z"/>
<path d="M291 204 c0 -11 3 -14 6 -6 3 7 2 16 -1 19 -3 4 -6 -2 -5 -13z"/>
</g>
</svg>
